<?xml version="1.0" standalone="no"?>
<!DOCTYPE svg PUBLIC "-//W3C//DTD SVG 20010904//EN"
 "http://www.w3.org/TR/2001/REC-SVG-20010904/DTD/svg10.dtd">
<svg version="1.0" xmlns="http://www.w3.org/2000/svg"
 width="1280.000000pt" height="955.000000pt" viewBox="0 0 1280.000000 955.000000"
 preserveAspectRatio="xMidYMid meet">
<g transform="translate(0.000000,955.000000) scale(0.100000,-0.100000)"
fill="#000000" stroke="none">
<path d="M8293 7125 c-1326 -1323 -2417 -2405 -2425 -2405 -7 0 -445 432 -973
960 -528 528 -964 960 -970 960 -6 0 -463 -453 -1018 -1008 l-1007 -1007 2003
-2003 c1101 -1101 2008 -2002 2016 -2002 7 0 1269 1254 2805 2787 1535 1533
3076 3071 3424 3418 347 346 632 635 632 641 0 11 -2052 2055 -2069 2062 -4 1
-1092 -1080 -2418 -2403z"/>
</g>
</svg>
