<?xml version="1.0" encoding="UTF-8"?>
<svg width="752pt" height="752pt" version="1.1" viewBox="0 0 752 752" xmlns="http://www.w3.org/2000/svg">
 <path d="m198.51 436.41 7.3984 44.398h0.003906c0.3125 1.8789 1.3359 3.5625 2.8594 4.7031l57.348 43.012 6.668 20.008c1.0078 3.0195 3.8359 5.0586 7.0195 5.0586 0.41016 0 0.81641-0.035156 1.2227-0.10156l3.5469-0.59375-4.3828 13.152c-0.25391 0.75781-0.38281 1.5469-0.38672 2.3438v22.199c0 1.9609 0.78125 3.8438 2.168 5.2305 1.3867 1.3867 3.2695 2.168 5.2305 2.168h177.59c2.2812 0 4.4336-1.0508 5.8359-2.8516 1.4023-1.7969 1.8984-4.1406 1.3398-6.3555l-4.4609-17.719 45.414 25.949h0.003907c3.375 1.9297 7.668 0.91797 9.8281-2.3164 0 0 15.398-23.289 15.473-23.469 0.027343-0.066407 7.75-30.641 7.75-30.641h-0.003907c0.83984-3.3633-0.76562-6.8633-3.8672-8.4141l-14.801-7.3984c-2.8477-1.4258-6.2891-0.86719-8.543 1.3867 0 0-16.145 16.5-16.504 17.473l-17.992-10.055 30.461-34.27c1.0352-1.1641 1.6758-2.625 1.832-4.1758l7.3984-73.996v-0.003906c0.074218-0.73047 0.039062-1.4648-0.10547-2.1875l-11.586-57.922 0.003907 0.003906c-2.2852-11.43-7.7695-21.973-15.812-30.406-8.0391-8.4336-18.312-14.41-29.617-17.234l-14.766-3.6914-41.23-13.742-5.2461-10.5v-11.203l4.4414-3.3281h-0.003907c1.8633-1.3984 2.9609-3.5898 2.9609-5.918v-14.801c1.9609 0 3.8438-0.78125 5.2305-2.168 1.3906-1.3867 2.168-3.2695 2.168-5.2305v-28.438c4.9062-15.105 7.4023-30.883 7.4023-46.766v-6.1953c0-1.9609-0.78125-3.8438-2.168-5.2344-1.3867-1.3867-3.2695-2.1641-5.2344-2.1641h-38.266c-14.945-0.042969-29.316 5.7305-40.078 16.098l-12.016 6.0078c-8.3086 4.1562-14.77 11.258-18.121 19.926-3.3516 8.6641-3.3516 18.266 0 26.934 3.3516 8.6641 9.8125 15.77 18.121 19.922l1.625 0.8125c0.45703 3.707 3.6055 6.4922 7.3398 6.4961v14.801c0 2.3281 1.0938 4.5195 2.957 5.918l4.4414 3.3281v11.203l-5.3594 10.719-33.062 13.227h-4.8477c-16.883 0-33.223 5.9922-46.105 16.906-12.887 10.914-21.48 26.047-24.258 42.703l-4.3477 26.07-28.391 35.492c-1.3164 1.6406-1.8672 3.7656-1.5234 5.8398zm96.098 133.18 6.4805-19.445 24.332-4.0547c2.707-0.45312 4.9375-2.3594 5.8047-4.9609l4.918-14.754 54.348 21.738-5.8477 8.7695 0.003906-0.003906c-2.1289 3.1953-1.4648 7.4883 1.5312 9.8867l20.527 16.418h-112.1zm9.6719-160.15 3.1641 25.324-15.934-8.9062zm61.363-54.168c2.9961 2.2305 6.6289 3.4336 10.359 3.4336 3.7344 0 7.3672-1.2031 10.359-3.4336 13.934-10.5 23.215-26.023 25.875-43.266l0.73438 0.24609-0.003906-0.003907c-0.33203 23.875-5.207 47.465-14.359 69.516-3.6641 8.8516-7.9961 17.41-12.957 25.609l-2.2461-0.44922v-23.531c0-4.0898-3.3125-7.4023-7.4023-7.4023-4.0859 0-7.3984 3.3125-7.3984 7.4023v23.82l-21.34 5.3359-27.152-13.574 0.003906-0.003906c-0.72656-0.35938-1.5117-0.60156-2.3164-0.70703l-0.99219-7.9336v-68.527l23.059-9.2227h-0.003906c2.7773 17.02 12.012 32.312 25.781 42.691zm70.875 216.13-9.2656 9.2656-26.527-21.223 9.6289-14.441 7.1016-2.3672c0.066406-0.023437 0.125-0.050781 0.19141-0.074219l25.91 14.809c-0.058594 0.10156-0.12109 0.19922-0.17188 0.30859zm-49.957-92.43 17.809-19.59c15.492-17.027 27.988-36.559 36.957-57.762l-13.238 46.34c-0.19141 0.66016-0.28516 1.3438-0.28516 2.0312v52.027zm56.039-27.945 9.2891-32.508 5.5117 11.02v47.68l-14.801 20.719zm0-128.8c0.039063 47.051-17.5 92.418-49.18 127.21l-20.121 22.133-14.887-8.3164 9.6641-9.6602 0.003906-0.003906c36.348-36.34 57.625-85.074 59.566-136.44l14.953 4.9844zm-119.12 121.5-3.5352-28.285 23.152 11.574v0.003906c1.5781 0.78906 3.3906 0.98828 5.1016 0.55859l27.984-6.9961 0.60156 0.12109h0.003906c-5.8008 7.9609-12.211 15.457-19.176 22.422l-12.621 12.621zm-41.16-6.0469 73.152 40.879-7.8242 11.734c-1.1016 1.6328-1.5078 3.6367-1.125 5.5664 0.38281 1.9336 1.5156 3.6328 3.1562 4.7266 1.6367 1.0938 3.6445 1.4883 5.5742 1.0977 1.9297-0.39453 3.625-1.5391 4.707-3.1836l8.4688-12.703 10.402 5.8125-8.9844 13.477v0.003906c-1.1016 1.6328-1.5078 3.6367-1.125 5.5703 0.37891 1.9336 1.5156 3.6328 3.1562 4.7266 1.6367 1.0898 3.6445 1.4844 5.5742 1.0938 1.9297-0.39062 3.625-1.5352 4.707-3.1797l9.6289-14.445 25.633 14.324-10.887 17.504-3.2734 1.0898h0.003907c-1.5625 0.51953-2.9062 1.5469-3.8203 2.918l-0.5625 0.84766-63.113-25.25-21.125-21.125c-1.3906-1.3867-3.2734-2.168-5.2383-2.168h-18.641l-23.73-29.664zm163.35 145.51 2.168-2.168v0.003906c0.5625-0.5625 1.0312-1.2148 1.3867-1.9258l3.3633-6.7266 2.7227 10.816zm68.605-2.4492-89.598-51.195 5.6836-9.1367 90.445 50.543zm11.188-40.344 4.7188 2.3594-3.6133 14.457-11.5-6.4258zm-40.488-200.36c6.5352 6.5234 10.984 14.836 12.785 23.891l11.367 56.84-7.0469 70.504-31.035 34.914-21.746-12.152 21.527-30.137c0.89453-1.2539 1.3789-2.7578 1.3789-4.3008v-51.797c0-1.1484-0.26953-2.2852-0.78516-3.3125l-14.016-28.035v-70.172l5.8555 1.4648c8.2188 2.0547 15.727 6.3047 21.715 12.293zm-138.57-104.63v-14.797h59.199v14.801l-13.055-0.003906-13.238-6.6172h0.003906c-2.0859-1.043-4.5391-1.043-6.6211 0l-13.238 6.6172zm-22.199-25.898c-0.015625-4.1875 1.1445-8.2969 3.3477-11.855 2.1992-3.5625 5.3555-6.4375 9.1094-8.2969l13.055-6.5273h-0.003906c0.71094-0.35547 1.3633-0.82422 1.9258-1.3867 8.0703-8.1172 19.051-12.664 30.496-12.633h30.863c-0.10938 12.523-1.9375 24.973-5.4375 37h-68.555c-4.0859 0-7.4023 3.3125-7.4023 7.3984v13.008c-4.7266-4.2656-7.418-10.34-7.3984-16.707zm37 40.699c1.1484 0 2.2812-0.26953 3.3086-0.78125l11.488-5.7461 11.488 5.7461h0.003907c1.0273 0.51172 2.1602 0.78125 3.3086 0.78125h7.3984v11.098l-14.801 11.098-14.797 0.003906-14.801-11.098v-11.102zm0.49219 35.52c1.2812 0.96094 2.8398 1.4766 4.4414 1.4766h19.734-0.003906c1.6016 0 3.1602-0.51562 4.4414-1.4766l0.49219-0.37109v1.8516-0.003906c0 1.1523 0.26562 2.2852 0.78125 3.3125l6.5664 13.133c-0.52734 15.703-8.125 30.328-20.668 39.793-0.87891 0.65625-2.082 0.65625-2.9609 0-12.539-9.4609-20.137-24.086-20.668-39.789l6.5664-13.133c0.51562-1.0273 0.78516-2.1641 0.78516-3.3164v-1.8516zm-120.51 117.1c0.79297-0.98438 1.3164-2.1562 1.5234-3.4062l4.6602-27.973v0.003907c2.168-13.012 8.8164-24.855 18.793-33.48 9.9766-8.625 22.656-13.492 35.844-13.754v64.047l-25.676 33.012c-1.8594 0.98047-3.207 2.7148-3.6992 4.7617l-20.859 26.824c-2.1016 2.6992-2.0742 6.4922 0.0625 9.1641l29.598 37v-0.003907c1.4062 1.7539 3.5273 2.7773 5.7734 2.7773h19.133l16.797 16.797-4.5391 13.633-33.766 5.6289-5.4023-16.199c-0.47656-1.4297-1.375-2.6758-2.582-3.582l-56.824-42.617-6.3672-38.215z"/>
</svg>
