<?xml version="1.0" encoding="UTF-8" standalone="no"?>
<!-- Created with Inkscape (http://www.inkscape.org/) -->

<svg
   version="1.1"
   id="svg48"
   width="6451.6934"
   height="6451.6934"
   viewBox="0 0 6451.6934 6451.6934"
   sodipodi:docname="vecteezy_picture-cinema-camera-strip-movie-house-logo-design_.svg"
   inkscape:version="1.2.1 (9c6d41e, 2022-07-14)"
   xmlns:inkscape="http://www.inkscape.org/namespaces/inkscape"
   xmlns:sodipodi="http://sodipodi.sourceforge.net/DTD/sodipodi-0.dtd"
   xmlns="http://www.w3.org/2000/svg"
   xmlns:svg="http://www.w3.org/2000/svg">
  <defs
     id="defs52">
    <rect
       x="373.34825"
       y="4380.5471"
       width="2167.4367"
       height="857.45459"
       id="rect1085" />
    <rect
       x="694.64664"
       y="3437.0601"
       width="582.13643"
       height="759.33314"
       id="rect402" />
    <rect
       x="1602.9912"
       y="3922.9539"
       width="3076.9079"
       height="944.0478"
       id="rect396" />
    <rect
       x="4397.1188"
       y="4776.6973"
       width="150.86992"
       height="40.994522"
       id="rect390" />
    <rect
       x="1802.1411"
       y="3962.357"
       width="2482.82"
       height="785.54193"
       id="rect384" />
  </defs>
  <sodipodi:namedview
     id="namedview50"
     pagecolor="#505050"
     bordercolor="#eeeeee"
     borderopacity="1"
     inkscape:showpageshadow="0"
     inkscape:pageopacity="0"
     inkscape:pagecheckerboard="0"
     inkscape:deskcolor="#505050"
     showgrid="false"
     inkscape:zoom="0.13345334"
     inkscape:cx="3814.0671"
     inkscape:cy="2356.6289"
     inkscape:window-width="1920"
     inkscape:window-height="1017"
     inkscape:window-x="1"
     inkscape:window-y="39"
     inkscape:window-maximized="1"
     inkscape:current-layer="g58">
    <inkscape:page
       x="0"
       y="0"
       id="page54"
       width="6451.6934"
       height="6451.6934"
       inkscape:export-filename="Page 1.png"
       inkscape:export-xdpi="96"
       inkscape:export-ydpi="96" />
  </sodipodi:namedview>
  <g
     id="g56"
     inkscape:groupmode="layer"
     inkscape:label="Page 1"
     transform="matrix(1.3333333,0,0,-1.3333333,0,6451.6933)">
    <g
       id="g58"
       transform="scale(0.1)">
      <path
         d="m 68665.822,-30953.612 h -48387.7 v 48387.7 h 48387.7 v -48387.7"
         style="fill:#ffffff;fill-opacity:0.00105112;fill-rule:nonzero;stroke:none"
         id="path60" />
      <path
         d="m 5867.9342,27680.947 -1318.7,294.4 v -1856.6 l 1318.7,294.3 v 1267.9"
         style="fill:#141211;fill-opacity:1;fill-rule:evenodd;stroke:none"
         id="path62" />
      <path
         d="m 7130.5342,28931.847 h 8881.1998 c 435.2,0 791.3,-356.1 791.3,-791.2 v -6018 c 0,-435.2 -356.1,-791.3 -791.3,-791.3 H 7130.5342 c -435.1,0 -791.2,356.1 -791.2,791.3 v 6018 c 0,435.1 356.1,791.2 791.2,791.2 z m 2988.9998,-973.1 1714.2,-437.4 v -4779.5 l -1714.2,-437.3 h 3274.2 v 5654.2 z m 1214.3,-2554.8 -459.3,-354.3 -459.4,-354.4 v 1417.4 l 459.4,-354.3 459.3,-354.4"
         style="fill:#141211;fill-opacity:1;fill-rule:evenodd;stroke:none"
         id="path64" />
      <path
         d="m 17342.034,26273.547 195.4,97.1 2771.9,1379.6 v -5518.3 l -2771.9,1379.6 -195.4,97.2 v 2564.8"
         style="fill:#141211;fill-opacity:1;fill-rule:evenodd;stroke:none"
         id="path70" />
      <path
         d="m 14097.434,35743.047 c 1779.3,0 3221.3,-1442 3221.3,-3220.9 0,-1779.1 -1442,-3221.3 -3221.3,-3221.3 -1778.8,0 -3220.7,1442.2 -3220.7,3221.3 0,1778.9 1441.9,3220.9 3220.7,3220.9 z m 512.7,-667.8 c 311,-283.1 333.2,-764.7 50.1,-1075.5 -283,-310.7 -764.4,-333.3 -1075.1,-50.1 -310.9,283 -333.6,764.6 -50.5,1075.3 283.2,310.8 764.8,333.4 1075.5,50.3 z m 1955,-1720.5 c -89.9,-410.7 -495.7,-670.9 -906.2,-581.2 -410.7,89.9 -671.1,495.6 -581.2,906.2 89.7,410.7 495.4,671 906.2,581.2 410.7,-89.7 670.8,-495.5 581.2,-906.2 z m -512.7,-2553.2 c -400.8,-127.6 -828.9,93.7 -956.6,494.1 -127.4,400.7 93.8,828.9 494.4,956.6 400.6,127.5 828.8,-93.7 956.3,-494.2 127.7,-400.6 -93.8,-828.9 -494.1,-956.5 z m -2467.5,-832.7 c -310.9,283.2 -333.4,764.5 -50.3,1075.5 283.2,310.8 764.6,333.3 1075.5,50.1 310.7,-282.9 333.2,-764.5 50.1,-1075.4 -283,-310.7 -764.4,-333.2 -1075.3,-50.2 z m -1954.9,1720.6 c 90.1,410.7 495.4,670.9 906.3,581.2 410.6,-90 670.7,-495.5 581.1,-906.2 -89.7,-410.7 -495.5,-671 -906,-581.3 -411,89.9 -671.1,495.6 -581.4,906.3 z m 512.7,2553.2 c 400.6,127.7 828.8,-93.6 956.5,-494.2 127.5,-400.7 -93.8,-828.8 -494.3,-956.5 -400.6,-127.6 -828.9,93.7 -956.4,494.3 -127.6,400.5 93.6,828.8 494.2,956.4"
         style="fill:#141211;fill-opacity:1;fill-rule:evenodd;stroke:none"
         id="path72" />
      <path
         d="m 8054.3342,33762.547 c 1232.2,0 2230.7998,-998.8 2230.7998,-2230.8 0,-1232 -998.5998,-2230.9 -2230.7998,-2230.9 -1232,0 -2230.6,998.9 -2230.6,2230.9 0,1232 998.6,2230.8 2230.6,2230.8 z m 355,-462.5 c 215.3,-196.2 230.9,-529.6 34.8,-744.8 -196.1,-215.2 -529.6,-230.8 -744.7,-34.8 -215.4,196.1 -230.9,529.6 -34.9,744.8 196.1,215.1 529.6,230.8 744.8,34.8 z m 1354,-1191.6 c -62.3,-284.5 -343.2,-464.7 -627.7,-402.4 -284.3,62.1 -464.6,343.1 -402.4,627.7 62.1,284.4 343.1,464.5 627.6,402.3 284.4,-62.1 464.6,-343.2 402.5,-627.6 z m -355.1,-1768.3 c -277.6,-88.4 -574.1,64.8 -662.5,342.3 -88.3,277.5 64.9,574.1 342.4,662.3 277.3,88.4 573.9,-64.7 662.3,-342.1 88.4,-277.5 -64.9,-574 -342.2,-662.5 z m -1709,-576.6 c -215.2,196 -230.7,529.5 -34.8,744.7 196.2,215.3 529.6,231 744.8,34.8 215.3,-195.9 231,-529.6 34.9,-744.7 -196.2,-215.3 -529.6,-230.8 -744.9,-34.8 z m -1353.7,1191.6 c 62.2,284.4 343.1,464.6 627.5,402.5 284.5,-62.2 464.8,-343.1 402.6,-627.6 -62.3,-284.6 -343.2,-464.7 -627.6,-402.5 -284.5,62.2 -464.7,343.1 -402.5,627.6 z m 355,1768.2 c 277.4,88.4 573.9,-64.8 662.4,-342.2 88.4,-277.4 -64.9,-574 -342.3,-662.4 -277.5,-88.4 -574,64.7 -662.5,342.1 -88.4,277.6 65,574.1 342.4,662.5"
         style="fill:#141211;fill-opacity:1;fill-rule:evenodd;stroke:none"
         id="path74" />
      <text
         xml:space="preserve"
         transform="matrix(7.5000002,0,0,-7.5000002,0,48387.701)"
         id="text382"
         style="fill:#000000;white-space:pre;shape-inside:url(#rect384)" />
      <text
         xml:space="preserve"
         transform="matrix(7.5000002,0,0,-7.5000002,0,48387.701)"
         id="text388"
         style="fill:#000000;white-space:pre;shape-inside:url(#rect390)" />
      <text
         xml:space="preserve"
         transform="matrix(7.5000002,0,0,-7.5000002,0,48387.701)"
         id="text394"
         style="fill:#000000;white-space:pre;shape-inside:url(#rect396)" />
      <text
         xml:space="preserve"
         transform="matrix(7.5000002,0,0,-7.5000002,0,48387.701)"
         id="text400"
         style="fill:#000000;white-space:pre;shape-inside:url(#rect402)" />
      <text
         xml:space="preserve"
         transform="matrix(7.5000002,0,0,-7.5000002,0,48387.701)"
         id="text1083"
         style="white-space:pre;shape-inside:url(#rect1085);fill:#000000;font-size:85.33333319px" />
      <text
         xml:space="preserve"
         style="font-style:normal;font-variant:normal;font-weight:normal;font-stretch:normal;font-size:7940.9px;font-family:'3270Narrow Nerd Font Mono';-inkscape-font-specification:'3270Narrow Nerd Font Mono';fill:#000000;stroke-width:13.2349"
         x="25152.316"
         y="-17839.75"
         id="text1091"
         transform="scale(0.81557379,-1.2261306)"
         inkscape:export-filename="text1091.png"
         inkscape:export-xdpi="96"
         inkscape:export-ydpi="96"><tspan
           sodipodi:role="line"
           id="tspan1089"
           style="font-style:normal;font-variant:normal;font-weight:normal;font-stretch:normal;font-size:7940.9px;font-family:'3270Narrow Nerd Font Mono';-inkscape-font-specification:'3270Narrow Nerd Font Mono';stroke-width:13.2349"
           x="25152.316"
           y="-17839.75">FILMWARE</tspan></text>
      <text
         xml:space="preserve"
         style="font-size:4500px;fill:#000000;stroke-width:7.5"
         x="14327.43"
         y="-14635.763"
         id="text1145"
         transform="scale(1,-1)"><tspan
           sodipodi:role="line"
           id="tspan1143"
           style="stroke-width:7.5"
           x="14327.43"
           y="-14635.763" /></text>
    </g>
  </g>
</svg>
